<svg xmlns="http://www.w3.org/2000/svg" viewBox="0 0 100 100">
  <!-- Background square for icon shape (iOS displays as square with rounded corners) -->
  <rect x="0" y="0" width="100" height="100" fill="#FFF7F2"/>

  <!-- Body — soft pastel pink blob -->
  <ellipse cx="50" cy="54" rx="34" ry="32" fill="#FFE0EE"/>

  <!-- Cheek blush -->
  <ellipse cx="30" cy="54" rx="7" ry="5" fill="#FFC8D8" opacity="0.5"/>
  <ellipse cx="70" cy="54" rx="7" ry="5" fill="#FFC8D8" opacity="0.5"/>

  <!-- Little ears -->
  <ellipse cx="26" cy="32" rx="8" ry="7" fill="#FFE0EE"/>
  <ellipse cx="74" cy="32" rx="8" ry="7" fill="#FFE0EE"/>

  <!-- Inner ears -->
  <ellipse cx="26" cy="32" rx="4.5" ry="4" fill="#FFC8D8" opacity="0.4"/>
  <ellipse cx="74" cy="32" rx="4.5" ry="4" fill="#FFC8D8" opacity="0.4"/>

  <!-- Flower on head -->
  <g transform="translate(50, 22)">
    <circle cx="0" cy="0" r="5" fill="#F2A5BE" opacity="0.7"/>
    <circle cx="0" cy="-4" r="2.5" fill="#F5C4D4"/>
    <circle cx="3.5" cy="-1" r="2.5" fill="#F5C4D4"/>
    <circle cx="-3.5" cy="-1" r="2.5" fill="#F5C4D4"/>
    <circle cx="2" cy="3" r="2.5" fill="#F5C4D4"/>
    <circle cx="-2" cy="3" r="2.5" fill="#F5C4D4"/>
    <circle cx="0" cy="0" r="2.5" fill="#FFE8F2"/>
  </g>

  <!-- Eyes (happy) -->
  <circle cx="37" cy="46" r="3.5" fill="#5C4448"/>
  <circle cx="63" cy="46" r="3.5" fill="#5C4448"/>
  <circle cx="38.5" cy="44.5" r="1.2" fill="white"/>
  <circle cx="64.5" cy="44.5" r="1.2" fill="white"/>

  <!-- Mouth (happy) -->
  <path d="M44 56 Q50 62, 56 56" stroke="#5C4448" stroke-width="2" fill="none" stroke-linecap="round"/>

  <!-- Tiny feet -->
  <ellipse cx="38" cy="84" rx="8" ry="4" fill="#FFE0EE"/>
  <ellipse cx="62" cy="84" rx="8" ry="4" fill="#FFE0EE"/>
</svg>
